<svg width="512" height="512" viewBox="0 0 512 512" fill="none" xmlns="http://www.w3.org/2000/svg">
<path fill-rule="evenodd" clip-rule="evenodd" d="M256 512C397.385 512 512 397.385 512 256C512 114.615 397.385 0 256 0C114.615 0 0 114.615 0 256C0 397.385 114.615 512 256 512Z" fill="#2A2FAF"/>
<path fill-rule="evenodd" clip-rule="evenodd" d="M0 256H256V73.1429H76.8373C29.4206 119.608 0 184.368 0 256V256Z" fill="#2A2FAF"/>
<path fill-rule="evenodd" clip-rule="evenodd" d="M43.1787 113.693L247.613 255.998H256.014V250.309L48.5936 105.925C46.7421 108.479 44.9369 111.069 43.1787 113.693V113.693Z" fill="#E92B2B"/>
<path fill-rule="evenodd" clip-rule="evenodd" d="M40.5713 117.654L239.318 255.999H247.604L43.1712 113.694C42.2927 115.006 41.426 116.326 40.5713 117.654V117.654ZM48.5859 105.926L256.007 250.31V244.541L51.4009 102.117C50.4512 103.377 49.5128 104.647 48.5859 105.926V105.926Z" fill="#FBFBFB"/>
<path fill-rule="evenodd" clip-rule="evenodd" d="M8.40183 256L256 83.648V73.1429H254.517L0.0629708 250.267C0.021028 252.173 0 254.083 0 256H8.40183Z" fill="#E92B2B"/>
<path fill-rule="evenodd" clip-rule="evenodd" d="M0.0712891 250.267L254.526 73.1429H246.238L0.268202 244.361C0.18043 246.323 0.114718 248.293 0.0712891 250.267V250.267ZM256.008 83.648L8.41015 256H16.6978L256.008 89.4172V83.648Z" fill="#FBFBFB"/>
<path fill-rule="evenodd" clip-rule="evenodd" d="M47.3569 107.631L256.004 252.809V241.273L52.9949 100.018C51.07 102.52 49.1902 105.057 47.3569 107.631V107.631Z" fill="#FBFBFB"/>
<path fill-rule="evenodd" clip-rule="evenodd" d="M0.0356445 252.798L256.016 74.6849V73.1429H241.653L0.449816 240.974C0.222959 244.893 0.0843302 248.834 0.0356445 252.798V252.798Z" fill="#FBFBFB"/>
<path fill-rule="evenodd" clip-rule="evenodd" d="M11.7856 179.008H114.291V256H141.72V179.008H256.006V150.135H141.72V73.1429H114.291V150.135H22.8515C18.6048 159.473 14.9028 169.111 11.7856 179.008V179.008Z" fill="#E92B2B"/>
<path fill-rule="evenodd" clip-rule="evenodd" d="M10.3213 183.819H109.719V256H118.862V179.008V174.195H114.29H13.3532C12.2813 177.376 11.2702 180.584 10.3213 183.819V183.819ZM20.7217 154.947H114.29H118.862V150.135V73.1429H109.719V145.323H25.0997C23.5764 148.496 22.1166 151.704 20.7217 154.947V154.947ZM146.29 183.819H256.004V174.195H141.719H137.147V179.008V256H146.29V183.819ZM146.29 145.323V73.1429H137.147V150.135V154.947H141.719H256.004V145.323H146.29Z" fill="#FBFBFB"/>
<path d="M136.011 280L144.992 307.639H174.053L150.542 324.721L159.522 352.361L136.011 335.279L112.5 352.361L121.48 324.721L97.9688 307.639H127.03L136.011 280Z" fill="#FBFBFB"/>
<path d="M299.99 208L304.48 221.82H319.011L307.255 230.361L311.746 244.18L299.99 235.639L288.234 244.18L292.724 230.361L280.969 221.82H295.5L299.99 208Z" fill="#FBFBFB"/>
<path d="M363.99 352L368.48 365.82H383.011L371.255 374.361L375.746 388.18L363.99 379.639L352.234 388.18L356.724 374.361L344.969 365.82H359.5L363.99 352Z" fill="#FBFBFB"/>
<path d="M371.99 144L376.48 157.82H391.011L379.255 166.361L383.746 180.18L371.99 171.639L360.234 180.18L364.724 166.361L352.969 157.82H367.5L371.99 144Z" fill="#FBFBFB"/>
<path d="M427.99 224L432.48 237.82H447.011L435.255 246.361L439.746 260.18L427.99 251.639L416.234 260.18L420.724 246.361L408.969 237.82H423.5L427.99 224Z" fill="#FBFBFB"/>
<path d="M383.998 272L387.59 283.056H399.215L389.81 289.889L393.403 300.944L383.998 294.111L374.594 300.944L378.186 289.889L368.781 283.056H380.406L383.998 272Z" fill="#FBFBFB"/>
</svg>
