<svg width="512" height="512" viewBox="0 0 512 512" fill="none" xmlns="http://www.w3.org/2000/svg">
<g clip-path="url(#clip0_31_46)">
<path d="M256 512C397.38 512 512 397.37 512 256C512 114.63 397.39 0 256 0C114.61 0 0 114.63 0 256C0 397.37 114.62 512 256 512Z" fill="#F0F0F0"/>
<path fill-rule="evenodd" clip-rule="evenodd" d="M2.63465e-05 256C-0.0218216 304.15 13.5449 351.33 39.1404 392.114C64.7359 432.898 101.321 465.631 144.69 486.55V25.47C59.07 66.86 2.63465e-05 154.46 2.63465e-05 256ZM512 256C512.017 207.852 498.447 160.676 472.85 119.896C447.253 79.1155 410.668 46.3861 367.3 25.47V486.55C410.671 465.632 447.258 432.9 472.855 392.116C498.453 351.332 512.021 304.152 512 256ZM345 267.1L300.48 289.43L311.6 311.62H267.12V345H244.86V311.62H200.35L211.49 289.43L167 267.1L189.23 256V233.68L233.75 256L211.49 211.5H233.75L256 178.08L278.26 211.5H300.52L278.27 256L322.8 233.67V256L345 267.1Z" fill="#D80027"/>
</g>
<defs>
<clipPath id="clip0_31_46">
<rect width="512" height="512" fill="white"/>
</clipPath>
</defs>
</svg>
