<svg width="512" height="512" viewBox="0 0 512 512" fill="none" xmlns="http://www.w3.org/2000/svg">
<path d="M97.0971 193.89C97.0971 189.472 100.679 185.89 105.097 185.89H302.308C306.726 185.89 310.308 189.472 310.308 193.89C310.308 198.308 306.726 201.89 302.308 201.89H105.097C100.679 201.89 97.0971 198.308 97.0971 193.89V193.89ZM261.624 252.009C261.624 247.591 258.042 244.009 253.624 244.009H105.097C100.679 244.009 97.0971 247.591 97.0971 252.009C97.0971 256.427 100.679 260.009 105.097 260.009H253.624C258.042 260.009 261.624 256.427 261.624 252.009V252.009ZM185.908 302.127H105.096C100.678 302.127 97.0961 305.709 97.0961 310.127C97.0961 314.545 100.678 318.127 105.096 318.127H185.908C190.326 318.127 193.908 314.545 193.908 310.127C193.908 305.709 190.326 302.127 185.908 302.127ZM185.908 360.246H105.096C100.678 360.246 97.0961 363.828 97.0961 368.246C97.0961 372.664 100.678 376.246 105.096 376.246H185.908C190.326 376.246 193.908 372.664 193.908 368.246C193.908 363.828 190.326 360.246 185.908 360.246ZM185.908 418.364H105.096C100.678 418.364 97.0961 421.946 97.0961 426.364C97.0961 430.782 100.678 434.364 105.096 434.364H185.908C190.326 434.364 193.908 430.782 193.908 426.364C193.908 421.946 190.326 418.364 185.908 418.364ZM105.097 143.771H185.909C190.327 143.771 193.909 140.189 193.909 135.771C193.909 131.353 190.327 127.771 185.909 127.771H105.097C100.679 127.771 97.0971 131.353 97.0971 135.771C97.0971 140.189 100.679 143.771 105.097 143.771V143.771ZM477.555 491.905L462.808 506.653C459.296 510.164 454.824 512 449.814 512C449.428 512 449.04 511.989 448.647 511.967C443.432 511.677 438.726 509.476 435.037 505.603L378.306 446.083V492.107C378.306 496.525 374.724 500.107 370.306 500.107H37.1001C32.6821 500.107 29.1001 496.525 29.1001 492.107V60.243C29.1001 58.114 29.9491 56.073 31.4581 54.571C32.9571 53.08 34.9851 52.243 37.1001 52.243H37.1421L81.3431 52.474V8C81.3431 3.582 84.9251 0 89.3431 0H422.548C426.966 0 430.548 3.582 430.548 8V420.366L476.504 464.135C480.377 467.828 482.577 472.533 482.867 477.746C483.173 483.227 481.336 488.123 477.555 491.905ZM97.3431 52.558L370.347 53.985C374.748 54.008 378.305 57.583 378.305 61.985V278.464L393.739 293.897C400.11 300.269 400.11 310.635 393.739 317.007L381.942 328.804C380.838 329.908 379.608 330.808 378.305 331.529V370.608L414.548 405.126V16H97.3431V52.558ZM347.81 317.784L312.703 282.677C291.537 310.504 281.406 320.636 253.578 341.802L288.685 376.908C308.229 351.52 322.422 337.328 347.81 317.784ZM231.223 342.075C231.164 342.015 231.074 341.986 230.983 341.986C230.892 341.986 230.801 342.015 230.742 342.076L218.945 353.873C218.826 353.992 218.826 354.234 218.945 354.353L276.114 411.523C276.231 411.642 276.476 411.643 276.595 411.522L288.392 399.725C288.512 399.606 288.512 399.363 288.392 399.244L231.223 342.075ZM325.255 248.044C325.234 248.022 325.165 247.953 325.015 247.953C324.865 247.953 324.797 248.02 324.775 248.043C324.775 248.043 324.775 248.043 324.774 248.044L312.976 259.841C312.858 259.959 312.858 260.204 312.977 260.323L370.146 317.491C370.263 317.61 370.509 317.61 370.628 317.491L382.424 305.694C382.544 305.574 382.544 305.331 382.424 305.212L325.255 248.044ZM345.903 339.749L362.304 355.37V331.434C361.218 330.816 360.191 330.064 359.242 329.177C354.413 332.87 350.008 336.354 345.903 339.749ZM270.778 123.294L291.351 110.291C294.034 108.598 297.466 108.645 300.097 110.42L317.775 122.338V69.71L270.778 69.464V123.294ZM294.032 484.106L289.912 465.81C289.834 465.783 289.717 465.755 289.568 465.755H198.483C198.335 465.755 198.217 465.782 198.139 465.811L194.019 484.106H294.032ZM362.305 429.296L310.606 375.056C307.226 379.145 303.755 383.533 300.079 388.341C306.059 394.74 305.946 404.8 299.707 411.04L287.91 422.837C284.724 426.022 280.539 427.615 276.354 427.615C272.169 427.615 267.987 426.023 264.8 422.838L207.63 365.668C204.55 362.588 202.855 358.483 202.855 354.112C202.855 349.741 204.551 345.638 207.63 342.558L219.427 330.761C225.67 324.52 235.739 324.408 242.138 330.4C270.688 308.792 279.693 299.786 301.302 271.236C295.313 264.838 295.422 254.769 301.663 248.526L313.462 236.728C316.541 233.648 320.645 231.953 325.016 231.953C329.387 231.953 333.491 233.648 336.571 236.728L362.306 262.463V69.943L333.777 69.794V137.379C333.777 140.337 332.145 143.053 329.534 144.442C326.921 145.831 323.757 145.665 321.305 144.012L295.487 126.606L267.054 144.577C265.751 145.4 264.267 145.814 262.78 145.814C261.453 145.814 260.124 145.484 258.92 144.821C256.366 143.414 254.78 140.729 254.78 137.814V69.381L45.1001 68.285V484.106H177.619L182.584 462.057C184.214 454.815 190.752 449.755 198.483 449.755H289.568C297.298 449.755 303.837 454.814 305.467 462.057L310.432 484.106H362.304V429.296H362.305ZM466.893 478.637C466.829 477.483 466.402 476.61 465.466 475.718L333.801 350.318C329.396 354.404 325.257 358.544 321.172 362.951L446.62 494.565C447.512 495.502 448.384 495.927 449.537 495.992C450.687 496.048 451.1 495.734 451.493 495.339L466.239 480.593C466.707 480.126 466.95 479.675 466.893 478.637V478.637Z" fill="black"/>
</svg>
