<svg id="Capa_1" enable-background="new 0 0 512 512" height="512" viewBox="0 0 512 512" width="512" xmlns="http://www.w3.org/2000/svg"><g><path d="m488.468 232.468c-10.354 0-19.16 6.724-22.3 16.032h-27.43c6.056-18.663 9.133-37.708 9.133-56.758 0-61.526-50.055-111.581-111.581-111.581-30.499 0-59.304 12.328-80.291 34.095-20.987-21.768-49.792-34.095-80.291-34.095-61.526 0-111.581 50.055-111.581 111.581 0 11.211 1.064 22.513 3.165 33.589.772 4.069 4.694 6.746 8.766 5.972 4.07-.771 6.743-4.696 5.972-8.766-1.925-10.158-2.902-20.519-2.902-30.795 0-53.254 43.326-96.581 96.581-96.581 28.916 0 56.073 12.803 74.507 35.126 1.425 1.726 3.546 2.725 5.783 2.725s4.358-.999 5.783-2.725c18.435-22.323 45.591-35.126 74.507-35.126 53.255 0 96.581 43.326 96.581 96.581 0 19.044-3.357 38.112-9.969 56.758h-69.432l-18.263-51.135c-1.111-3.112-4.108-5.133-7.431-4.968-3.301.162-6.107 2.465-6.908 5.672l-24.789 99.154-32.806-131.219c-.821-3.283-3.738-5.61-7.122-5.679-3.384-.087-6.394 2.135-7.349 5.382l-33.637 114.372-24.263-66.722c-1.063-2.923-3.819-4.887-6.929-4.936-3.065-.062-5.927 1.825-7.083 4.713l-14.147 35.366h-116.91c-3.139-9.308-11.946-16.032-22.3-16.032-12.975 0-23.532 10.556-23.532 23.532s10.557 23.532 23.532 23.532c10.354 0 19.16-6.724 22.3-16.032h32.972c22.624 54.398 67.701 96.565 102.036 122.627 38.075 28.9 70.597 44.352 71.962 44.996 2.025.954 4.37.954 6.395 0 1.095-.517 27.208-12.912 60.045-36.244 55.075-39.133 84.596-77.604 99.663-102.985 2.114-3.562.941-8.163-2.621-10.277-3.562-2.115-8.164-.94-10.278 2.621-44.759 75.4-132.219 122.676-150.008 131.729-19.365-9.85-121.101-64.903-160.836-152.466h72.657c3.066 0 5.824-1.867 6.963-4.714l8.737-21.84 25.351 69.713c1.107 3.045 4.034 5.034 7.284 4.933 3.238-.102 6.046-2.271 6.96-5.38l32.297-109.814 33.393 133.566c.834 3.339 3.834 5.681 7.276 5.681s6.441-2.343 7.276-5.681l26.057-104.227 11.709 32.785c1.066 2.985 3.894 4.978 7.063 4.978h117.983c3.139 9.308 11.946 16.032 22.3 16.032 12.975-.001 23.532-10.557 23.532-23.533s-10.557-23.532-23.532-23.532zm-464.936 32.064c-4.705 0-8.532-3.828-8.532-8.532s3.828-8.532 8.532-8.532 8.532 3.828 8.532 8.532-3.827 8.532-8.532 8.532zm464.936 0c-4.705 0-8.532-3.828-8.532-8.532s3.828-8.532 8.532-8.532 8.532 3.827 8.532 8.532-3.828 8.532-8.532 8.532z"/></g></svg>