<svg width="512" height="512" viewBox="0 0 512 512" fill="none" xmlns="http://www.w3.org/2000/svg">
<path d="M408 216H328C323.584 216 320 219.576 320 224V352C320 387.288 291.288 416 256 416C220.712 416 192 387.288 192 352V224C192 219.576 188.416 216 184 216H104C99.584 216 96 219.576 96 224V352C96 440.224 167.776 512 256 512C344.224 512 416 440.224 416 352V224C416 219.576 412.416 216 408 216ZM400 232V272H336V232H400ZM176 232V272H112V232H176ZM256 496C176.6 496 112 431.4 112 352V288H176V352C176 396.112 211.888 432 256 432C300.112 432 336 396.112 336 352V288H400V352C400 431.4 335.4 496 256 496Z" fill="black"/>
<path d="M390.056 90.112C396.168 83.088 400 74.024 400 64C400 41.944 382.056 24 360 24C337.944 24 320 41.944 320 64C320 74.112 323.896 83.248 330.104 90.304C326.08 91.552 322.192 93.224 318.592 95.52C311 88.28 301.416 83.136 290.72 81.048C298.928 72.44 304 60.816 304 48C304 21.528 282.472 0 256 0C229.528 0 208 21.528 208 48C208 60.816 213.072 72.44 221.28 81.056C210.592 83.144 201 88.28 193.408 95.528C189.8 93.232 185.92 91.56 181.896 90.312C188.104 83.248 192 74.112 192 64C192 41.944 174.056 24 152 24C129.944 24 112 41.944 112 64C112 74.024 115.832 83.088 121.944 90.112C102.32 96.136 88 114.424 88 136V144C88 157.232 98.768 168 112 168H177.48C180.792 177.288 189.592 184 200 184H312C322.416 184 331.208 177.288 334.528 168H400C413.232 168 424 157.232 424 144V136C424 114.424 409.68 96.136 390.056 90.112ZM360 40C373.232 40 384 50.768 384 64C384 77.232 373.232 88 360 88C346.768 88 336 77.232 336 64C336 50.768 346.768 40 360 40V40ZM256 16C273.648 16 288 30.352 288 48C288 65.648 273.648 80 256 80C238.352 80 224 65.648 224 48C224 30.352 238.352 16 256 16V16ZM152 40C165.232 40 176 50.768 176 64C176 77.232 165.232 88 152 88C138.768 88 128 77.232 128 64C128 50.768 138.768 40 152 40V40ZM104 144V136C104 118.352 118.352 104 136 104H168C173.416 104 178.704 105.512 183.456 108.2C178.736 116.408 176 125.88 176 136V152H112C107.592 152 104 148.416 104 144ZM312 168H200C195.592 168 192 164.416 192 160V136C192 113.944 209.944 96 232 96H280C302.056 96 320 113.944 320 136V160C320 164.416 316.408 168 312 168ZM408 144C408 148.416 404.408 152 400 152H336V136C336 125.88 333.264 116.408 328.544 108.2C333.296 105.512 338.584 104 344 104H376C393.648 104 408 118.352 408 136V144Z" fill="black"/>
</svg>
