<svg width="512" height="512" viewBox="0 0 512 512" fill="none" xmlns="http://www.w3.org/2000/svg">
<path d="M255.995 511.995C397.372 511.995 511.99 397.367 511.99 256C511.99 114.633 397.382 0.00500488 255.995 0.00500488C114.608 0.00500488 0 114.633 0 256C0 397.367 114.628 511.995 255.995 511.995Z" fill="#F0F0F0"/>
<path fill-rule="evenodd" clip-rule="evenodd" d="M411.862 52.9239C385.342 32.543 355.081 17.5636 322.793 8.83478V142.002L411.862 52.9239ZM8.82959 189.311C17.5176 156.978 32.5001 126.676 52.9187 100.143L141.997 189.311H8.82959ZM459.091 100.143C479.492 126.687 494.473 156.985 503.18 189.311H369.993L459.091 100.143ZM8.82959 322.849H141.997L52.9287 411.847C32.5499 385.35 17.5673 355.113 8.82959 322.849ZM100.158 459.096C126.68 479.473 156.94 494.452 189.226 503.185V370.068L100.158 459.096ZM100.158 52.9239C126.671 32.5321 156.934 17.5517 189.226 8.83478V142.002L100.158 52.9239ZM322.773 503.185C355.066 494.468 385.329 479.488 411.842 459.096L322.773 370.098V503.185ZM459.061 411.877L369.993 322.879H503.15C494.429 355.148 479.448 385.387 459.061 411.877Z" fill="#0052B4"/>
<path fill-rule="evenodd" clip-rule="evenodd" d="M509.83 222.591H289.394V2.14493C267.222 -0.694958 244.778 -0.694958 222.606 2.14493V222.581H2.16987C-0.720036 244.77 -0.720036 267.24 2.16987 289.429H222.606V509.865C244.778 512.705 267.222 512.705 289.394 509.865V289.429H509.83C512.72 267.243 512.72 244.776 509.83 222.591ZM322.834 322.849L436.991 437.046L452.041 420.547L354.243 322.849H322.794H322.834ZM74.9985 437.046L189.226 322.849V354.278L91.4281 452.126L74.9985 437.046ZM189.216 189.161L74.9985 75.0035L59.9987 91.5032L157.797 189.351H189.286L189.216 189.161ZM436.991 75.0035L322.794 189.161V157.732L420.592 59.8838L436.991 75.0035Z" fill="#D80027"/>
</svg>
